<svg width="130" height="30" viewBox="0 0 130 30" fill="none" xmlns="http://www.w3.org/2000/svg">
<path d="M0.550781 29L10.6289 0.816406H14.8672V5.83594H13.4023L5.82422 29H0.550781ZM5.64844 21.7148L6.99609 17.8281H19.9062L21.2539 21.7148H5.64844ZM21.0781 29L13.5 5.83594V0.816406H16.293L26.3516 29H21.0781ZM29.3789 29V0.816406H40.6289C42.6341 0.816406 44.3594 1.17448 45.8047 1.89062C47.25 2.59375 48.3633 3.60286 49.1445 4.91797C49.9258 6.23307 50.3164 7.79557 50.3164 9.60547V9.64453C50.3164 11.5456 49.8346 13.2122 48.8711 14.6445C47.9206 16.0768 46.6315 17.0924 45.0039 17.6914L51.1562 29H45.4141L39.8672 18.4531C39.8281 18.4531 39.7826 18.4531 39.7305 18.4531C39.6914 18.4531 39.6523 18.4531 39.6133 18.4531H34.418V29H29.3789ZM34.418 14.4688H40.1016C41.7031 14.4688 42.9466 14.0521 43.832 13.2188C44.7174 12.3724 45.1602 11.194 45.1602 9.68359V9.64453C45.1602 8.17318 44.6979 7.01432 43.7734 6.16797C42.849 5.30859 41.5924 4.87891 40.0039 4.87891H34.418V14.4688ZM52.4258 29L62.5039 0.816406H66.7422V5.83594H65.2773L57.6992 29H52.4258ZM57.5234 21.7148L58.8711 17.8281H71.7812L73.1289 21.7148H57.5234ZM72.9531 29L65.375 5.83594V0.816406H68.168L78.2266 29H72.9531ZM80.5703 29V25.6406L95.5703 5.15234V5.05469H80.9805V0.816406H101.625V4.15625L86.7031 24.6641V24.7617H101.996V29H80.5703ZM117.895 29.4883C115.512 29.4883 113.454 29.0521 111.723 28.1797C109.991 27.3073 108.65 26.0898 107.699 24.5273C106.762 22.9648 106.293 21.1419 106.293 19.0586V0.816406H111.332V18.6484C111.332 19.9505 111.586 21.0898 112.094 22.0664C112.615 23.0299 113.363 23.7852 114.34 24.332C115.316 24.8659 116.501 25.1328 117.895 25.1328C119.288 25.1328 120.473 24.8659 121.449 24.332C122.426 23.7852 123.168 23.0299 123.676 22.0664C124.184 21.0898 124.438 19.9505 124.438 18.6484V0.816406H129.457V19.0586C129.457 21.1289 128.988 22.9518 128.051 24.5273C127.126 26.0898 125.798 27.3073 124.066 28.1797C122.335 29.0521 120.277 29.4883 117.895 29.4883Z" fill="white"/>
</svg>
