<svg width="32" height="32" viewBox="0 0 32 32" fill="none" xmlns="http://www.w3.org/2000/svg">
<g clip-path="url(#clip0_550_402)">
<path d="M23.3846 30.7298V31.9605H8.61539V30.7298C8.61539 30.0516 9.168 29.499 9.84615 29.499H12.3237C12.3889 27.963 13.3858 26.6805 14.7692 26.1895V11.7587C14.1206 11.3488 13.6862 10.6301 13.6862 9.80546H14.7692H17.2308H18.3138C18.3138 10.6301 17.8794 11.3488 17.2308 11.7587V26.1882C18.6142 26.6793 19.6111 27.9618 19.6763 29.4978H22.1538C22.832 29.499 23.3846 30.0516 23.3846 30.7298ZM32 19.6516C31.0978 22.1919 28.6954 24.0245 25.8462 24.0245C22.9969 24.0245 20.5945 22.1907 19.6923 19.6516H21.1126L25.2702 8.63254C25.4498 8.15254 26.2412 8.15254 26.4222 8.63254L30.5797 19.6516H32ZM29.264 19.6516L25.8462 10.5944L22.4283 19.6528H29.264V19.6516ZM6.15385 7.35746C6.71138 7.35746 7.16554 6.98454 7.32308 6.47869C7.73046 6.32361 8.14769 6.11438 8.576 5.89777C9.51754 5.42269 10.5846 4.88238 11.6923 4.88238C12.7557 4.88238 13.4203 5.37346 13.8006 5.79192C13.7858 5.89777 13.7686 6.00361 13.7686 6.11315C13.7686 7.34515 14.768 8.34454 16 8.34454C17.232 8.34454 18.2314 7.34515 18.2314 6.11315C18.2314 6.00361 18.2142 5.899 18.1994 5.79315C18.5785 5.37592 19.2431 4.88238 20.3077 4.88238C21.4154 4.88238 22.4825 5.42146 23.4228 5.89654C23.8523 6.11315 24.2695 6.32238 24.6769 6.47746C24.8345 6.98331 25.2886 7.35623 25.8462 7.35623C26.5329 7.35623 27.0892 6.79992 27.0892 6.11315C27.0892 5.42638 26.5329 4.87008 25.8462 4.87008C25.4917 4.87008 25.1754 5.02269 24.9489 5.26146C24.6449 5.13346 24.3163 4.96977 23.9778 4.79869C22.9145 4.26085 21.7095 3.65161 20.3077 3.65161C19.0818 3.65161 18.2277 4.11808 17.648 4.62023C17.3883 4.33346 17.056 4.11931 16.6782 3.99746C17.1372 3.75131 17.4597 3.28238 17.4597 2.72731C17.4597 1.92115 16 0.0393066 16 0.0393066C16 0.0393066 14.5403 1.92115 14.5403 2.72731C14.5403 3.28361 14.8628 3.75131 15.3218 3.99746C14.944 4.11808 14.6117 4.33346 14.352 4.62023C13.7723 4.11808 12.9182 3.65161 11.6923 3.65161C10.2905 3.65161 9.08431 4.26085 8.02092 4.79869C7.68246 4.971 7.35508 5.13469 7.05108 5.26146C6.82462 5.02392 6.50831 4.87008 6.15385 4.87008C5.46708 4.87008 4.91077 5.42638 4.91077 6.11315C4.91077 6.79992 5.46708 7.35746 6.15385 7.35746ZM6.15385 24.0258C3.30462 24.0258 0.902154 22.1919 0 19.6528H1.42031L5.57785 8.63377C5.75754 8.15377 6.54892 8.15377 6.72985 8.63377L10.8874 19.6528H12.3077C11.4055 22.1919 9.00308 24.0258 6.15385 24.0258ZM9.57169 19.6516L6.15385 10.5944L2.736 19.6528H9.57169V19.6516Z" fill="white"/>
</g>
<defs>
<clipPath id="clip0_550_402">
<rect width="32" height="32" fill="white"/>
</clipPath>
</defs>
</svg>

