<svg width="166" height="48" viewBox="0 0 166 48" fill="none" xmlns="http://www.w3.org/2000/svg">
<g clip-path="url(#clip0_67_824)">
<path d="M23.3846 38.7298V39.9605H8.61539V38.7298C8.61539 38.0516 9.168 37.499 9.84615 37.499H12.3237C12.3889 35.963 13.3858 34.6805 14.7692 34.1895V19.7587C14.1206 19.3488 13.6862 18.6301 13.6862 17.8055H14.7692H17.2308H18.3138C18.3138 18.6301 17.8794 19.3488 17.2308 19.7587V34.1882C18.6142 34.6793 19.6111 35.9618 19.6763 37.4978H22.1538C22.832 37.499 23.3846 38.0516 23.3846 38.7298ZM32 27.6516C31.0978 30.1919 28.6954 32.0245 25.8462 32.0245C22.9969 32.0245 20.5945 30.1907 19.6923 27.6516H21.1126L25.2702 16.6325C25.4498 16.1525 26.2412 16.1525 26.4222 16.6325L30.5797 27.6516H32ZM29.264 27.6516L25.8462 18.5944L22.4283 27.6528H29.264V27.6516ZM6.15385 15.3575C6.71138 15.3575 7.16554 14.9845 7.32308 14.4787C7.73046 14.3236 8.14769 14.1144 8.576 13.8978C9.51754 13.4227 10.5846 12.8824 11.6923 12.8824C12.7557 12.8824 13.4203 13.3735 13.8006 13.7919C13.7858 13.8978 13.7686 14.0036 13.7686 14.1132C13.7686 15.3452 14.768 16.3445 16 16.3445C17.232 16.3445 18.2314 15.3452 18.2314 14.1132C18.2314 14.0036 18.2142 13.899 18.1994 13.7932C18.5785 13.3759 19.2431 12.8824 20.3077 12.8824C21.4154 12.8824 22.4825 13.4215 23.4228 13.8965C23.8523 14.1132 24.2695 14.3224 24.6769 14.4775C24.8345 14.9833 25.2886 15.3562 25.8462 15.3562C26.5329 15.3562 27.0892 14.7999 27.0892 14.1132C27.0892 13.4264 26.5329 12.8701 25.8462 12.8701C25.4917 12.8701 25.1754 13.0227 24.9489 13.2615C24.6449 13.1335 24.3163 12.9698 23.9778 12.7987C22.9145 12.2608 21.7095 11.6516 20.3077 11.6516C19.0818 11.6516 18.2277 12.1181 17.648 12.6202C17.3883 12.3335 17.056 12.1193 16.6782 11.9975C17.1372 11.7513 17.4597 11.2824 17.4597 10.7273C17.4597 9.92115 16 8.03931 16 8.03931C16 8.03931 14.5403 9.92115 14.5403 10.7273C14.5403 11.2836 14.8628 11.7513 15.3218 11.9975C14.944 12.1181 14.6117 12.3335 14.352 12.6202C13.7723 12.1181 12.9182 11.6516 11.6923 11.6516C10.2905 11.6516 9.08431 12.2608 8.02092 12.7987C7.68246 12.971 7.35508 13.1347 7.05108 13.2615C6.82462 13.0239 6.50831 12.8701 6.15385 12.8701C5.46708 12.8701 4.91077 13.4264 4.91077 14.1132C4.91077 14.7999 5.46708 15.3575 6.15385 15.3575ZM6.15385 32.0258C3.30462 32.0258 0.902154 30.1919 0 27.6528H1.42031L5.57785 16.6338C5.75754 16.1538 6.54892 16.1538 6.72985 16.6338L10.8874 27.6528H12.3077C11.4055 30.1919 9.00308 32.0258 6.15385 32.0258ZM9.57169 27.6516L6.15385 18.5944L2.736 27.6528H9.57169V27.6516Z" fill="#1D38C5"/>
</g>
<path d="M34.5508 38L44.6289 9.81641H48.8672V14.8359H47.4023L39.8242 38H34.5508ZM39.6484 30.7148L40.9961 26.8281H53.9062L55.2539 30.7148H39.6484ZM55.0781 38L47.5 14.8359V9.81641H50.293L60.3516 38H55.0781ZM63.3789 38V9.81641H74.6289C76.6341 9.81641 78.3594 10.1745 79.8047 10.8906C81.25 11.5938 82.3633 12.6029 83.1445 13.918C83.9258 15.2331 84.3164 16.7956 84.3164 18.6055V18.6445C84.3164 20.5456 83.8346 22.2122 82.8711 23.6445C81.9206 25.0768 80.6315 26.0924 79.0039 26.6914L85.1562 38H79.4141L73.8672 27.4531C73.8281 27.4531 73.7826 27.4531 73.7305 27.4531C73.6914 27.4531 73.6523 27.4531 73.6133 27.4531H68.418V38H63.3789ZM68.418 23.4688H74.1016C75.7031 23.4688 76.9466 23.0521 77.832 22.2188C78.7174 21.3724 79.1602 20.194 79.1602 18.6836V18.6445C79.1602 17.1732 78.6979 16.0143 77.7734 15.168C76.849 14.3086 75.5924 13.8789 74.0039 13.8789H68.418V23.4688ZM86.4258 38L96.5039 9.81641H100.742V14.8359H99.2773L91.6992 38H86.4258ZM91.5234 30.7148L92.8711 26.8281H105.781L107.129 30.7148H91.5234ZM106.953 38L99.375 14.8359V9.81641H102.168L112.227 38H106.953ZM114.57 38V34.6406L129.57 14.1523V14.0547H114.98V9.81641H135.625V13.1562L120.703 33.6641V33.7617H135.996V38H114.57ZM151.895 38.4883C149.512 38.4883 147.454 38.0521 145.723 37.1797C143.991 36.3073 142.65 35.0898 141.699 33.5273C140.762 31.9648 140.293 30.1419 140.293 28.0586V9.81641H145.332V27.6484C145.332 28.9505 145.586 30.0898 146.094 31.0664C146.615 32.0299 147.363 32.7852 148.34 33.332C149.316 33.8659 150.501 34.1328 151.895 34.1328C153.288 34.1328 154.473 33.8659 155.449 33.332C156.426 32.7852 157.168 32.0299 157.676 31.0664C158.184 30.0898 158.438 28.9505 158.438 27.6484V9.81641H163.457V28.0586C163.457 30.1289 162.988 31.9518 162.051 33.5273C161.126 35.0898 159.798 36.3073 158.066 37.1797C156.335 38.0521 154.277 38.4883 151.895 38.4883Z" fill="#1D38C5"/>
<defs>
<clipPath id="clip0_67_824">
<rect width="32" height="32" fill="white" transform="translate(0 8)"/>
</clipPath>
</defs>
</svg>
